solid OpenSCAD_Model
  facet normal -0.998795 0.0490719 0
    outer loop
      vertex -7.65 0 0
      vertex -7.61316 0.74983 15
      vertex -7.61316 0.74983 0
    endloop
  endfacet
  facet normal -0.998795 0.0490719 0
    outer loop
      vertex -7.61316 0.74983 15
      vertex -7.65 0 0
      vertex -7.65 0 15
    endloop
  endfacet
  facet normal -0.0490719 0.998795 0
    outer loop
      vertex 0 7.65 0
      vertex -0.74983 7.61316 15
      vertex 0 7.65 15
    endloop
  endfacet
  facet normal -0.0490719 0.998795 0
    outer loop
      vertex -0.74983 7.61316 15
      vertex 0 7.65 0
      vertex -0.74983 7.61316 0
    endloop
  endfacet
  facet normal 0.0490719 -0.998795 0
    outer loop
      vertex 0 -7.65 0
      vertex 0.74983 -7.61316 15
      vertex 0 -7.65 15
    endloop
  endfacet
  facet normal 0.0490719 -0.998795 0
    outer loop
      vertex 0.74983 -7.61316 15
      vertex 0 -7.65 0
      vertex 0.74983 -7.61316 0
    endloop
  endfacet
  facet normal 0.671556 0.740954 -0
    outer loop
      vertex 5.40937 5.40937 0
      vertex 4.85311 5.91353 15
      vertex 5.40937 5.40937 15
    endloop
  endfacet
  facet normal 0.671556 0.740954 0
    outer loop
      vertex 4.85311 5.91353 15
      vertex 5.40937 5.40937 0
      vertex 4.85311 5.91353 0
    endloop
  endfacet
  facet normal -0.671556 0.740954 0
    outer loop
      vertex -4.85311 5.91353 0
      vertex -5.40937 5.40937 15
      vertex -4.85311 5.91353 15
    endloop
  endfacet
  facet normal -0.671556 0.740954 0
    outer loop
      vertex -5.40937 5.40937 15
      vertex -4.85311 5.91353 0
      vertex -5.40937 5.40937 0
    endloop
  endfacet
  facet normal -0.427558 0.903988 0
    outer loop
      vertex -2.92753 7.06768 0
      vertex -3.60618 6.7467 15
      vertex -2.92753 7.06768 15
    endloop
  endfacet
  facet normal -0.427558 0.903988 0
    outer loop
      vertex -3.60618 6.7467 15
      vertex -2.92753 7.06768 0
      vertex -3.60618 6.7467 0
    endloop
  endfacet
  facet normal 0.857727 -0.514106 0
    outer loop
      vertex 6.36074 -4.25011 15
      vertex 6.7467 -3.60618 0
      vertex 6.7467 -3.60618 15
    endloop
  endfacet
  facet normal 0.857727 -0.514106 0
    outer loop
      vertex 6.7467 -3.60618 0
      vertex 6.36074 -4.25011 15
      vertex 6.36074 -4.25011 0
    endloop
  endfacet
  facet normal 0.903988 0.427558 0
    outer loop
      vertex 7.06768 2.92753 15
      vertex 6.7467 3.60618 0
      vertex 6.7467 3.60618 15
    endloop
  endfacet
  facet normal 0.903988 0.427558 0
    outer loop
      vertex 6.7467 3.60618 0
      vertex 7.06768 2.92753 15
      vertex 7.06768 2.92753 0
    endloop
  endfacet
  facet normal 0.336884 0.941546 -0
    outer loop
      vertex 2.92753 7.06768 0
      vertex 2.22068 7.32059 15
      vertex 2.92753 7.06768 15
    endloop
  endfacet
  facet normal 0.336884 0.941546 0
    outer loop
      vertex 2.22068 7.32059 15
      vertex 2.92753 7.06768 0
      vertex 2.22068 7.32059 0
    endloop
  endfacet
  facet normal 0.514106 0.857727 -0
    outer loop
      vertex 4.25011 6.36074 0
      vertex 3.60618 6.7467 15
      vertex 4.25011 6.36074 15
    endloop
  endfacet
  facet normal 0.514106 0.857727 0
    outer loop
      vertex 3.60618 6.7467 15
      vertex 4.25011 6.36074 0
      vertex 3.60618 6.7467 0
    endloop
  endfacet
  facet normal -0.903988 0.427558 0
    outer loop
      vertex -7.06768 2.92753 0
      vertex -6.7467 3.60618 15
      vertex -6.7467 3.60618 0
    endloop
  endfacet
  facet normal -0.903988 0.427558 0
    outer loop
      vertex -6.7467 3.60618 15
      vertex -7.06768 2.92753 0
      vertex -7.06768 2.92753 15
    endloop
  endfacet
  facet normal -0.242987 0.97003 0
    outer loop
      vertex -1.49244 7.50301 0
      vertex -2.22068 7.32059 15
      vertex -1.49244 7.50301 15
    endloop
  endfacet
  facet normal -0.242987 0.97003 0
    outer loop
      vertex -2.22068 7.32059 15
      vertex -1.49244 7.50301 0
      vertex -2.22068 7.32059 0
    endloop
  endfacet
  facet normal 0.970026 -0.243002 0
    outer loop
      vertex 7.32059 -2.22068 15
      vertex 7.35 -2.10328 0
      vertex 7.35 -2.10328 15
    endloop
  endfacet
  facet normal 0.970026 -0.243002 0
    outer loop
      vertex 7.35 -2.10328 0
      vertex 7.32059 -2.22068 15
      vertex 7.32059 -2.22068 0
    endloop
  endfacet
  facet normal 0.146723 -0.989178 0
    outer loop
      vertex 0.74983 -7.61316 0
      vertex 1.49244 -7.50301 15
      vertex 0.74983 -7.61316 15
    endloop
  endfacet
  facet normal 0.146723 -0.989178 0
    outer loop
      vertex 1.49244 -7.50301 15
      vertex 0.74983 -7.61316 0
      vertex 1.49244 -7.50301 0
    endloop
  endfacet
  facet normal 0.970026 0.243002 0
    outer loop
      vertex 7.35 2.10328 15
      vertex 7.32059 2.22068 0
      vertex 7.32059 2.22068 15
    endloop
  endfacet
  facet normal 0.970026 0.243002 0
    outer loop
      vertex 7.32059 2.22068 0
      vertex 7.35 2.10328 15
      vertex 7.35 2.10328 0
    endloop
  endfacet
  facet normal 0.941546 0.336884 0
    outer loop
      vertex 7.32059 2.22068 15
      vertex 7.06768 2.92753 0
      vertex 7.06768 2.92753 15
    endloop
  endfacet
  facet normal 0.941546 0.336884 0
    outer loop
      vertex 7.06768 2.92753 0
      vertex 7.32059 2.22068 15
      vertex 7.32059 2.22068 0
    endloop
  endfacet
  facet normal 0.803211 0.595695 0
    outer loop
      vertex 6.36074 4.25011 15
      vertex 5.91353 4.85311 0
      vertex 5.91353 4.85311 15
    endloop
  endfacet
  facet normal 0.803211 0.595695 0
    outer loop
      vertex 5.91353 4.85311 0
      vertex 6.36074 4.25011 15
      vertex 6.36074 4.25011 0
    endloop
  endfacet
  facet normal 0.740954 0.671556 0
    outer loop
      vertex 5.91353 4.85311 15
      vertex 5.40937 5.40937 0
      vertex 5.40937 5.40937 15
    endloop
  endfacet
  facet normal 0.740954 0.671556 0
    outer loop
      vertex 5.40937 5.40937 0
      vertex 5.91353 4.85311 15
      vertex 5.91353 4.85311 0
    endloop
  endfacet
  facet normal 0.857727 0.514106 0
    outer loop
      vertex 6.7467 3.60618 15
      vertex 6.36074 4.25011 0
      vertex 6.36074 4.25011 15
    endloop
  endfacet
  facet normal 0.857727 0.514106 0
    outer loop
      vertex 6.36074 4.25011 0
      vertex 6.7467 3.60618 15
      vertex 6.7467 3.60618 0
    endloop
  endfacet
  facet normal 0.146723 0.989178 -0
    outer loop
      vertex 1.49244 7.50301 0
      vertex 0.74983 7.61316 15
      vertex 1.49244 7.50301 15
    endloop
  endfacet
  facet normal 0.146723 0.989178 0
    outer loop
      vertex 0.74983 7.61316 15
      vertex 1.49244 7.50301 0
      vertex 0.74983 7.61316 0
    endloop
  endfacet
  facet normal 0.242987 0.97003 -0
    outer loop
      vertex 2.22068 7.32059 0
      vertex 1.49244 7.50301 15
      vertex 2.22068 7.32059 15
    endloop
  endfacet
  facet normal 0.242987 0.97003 0
    outer loop
      vertex 1.49244 7.50301 15
      vertex 2.22068 7.32059 0
      vertex 1.49244 7.50301 0
    endloop
  endfacet
  facet normal 0.0490719 0.998795 -0
    outer loop
      vertex 0.74983 7.61316 0
      vertex 0 7.65 15
      vertex 0.74983 7.61316 15
    endloop
  endfacet
  facet normal 0.0490719 0.998795 0
    outer loop
      vertex 0 7.65 15
      vertex 0.74983 7.61316 0
      vertex 0 7.65 0
    endloop
  endfacet
  facet normal 0.427558 0.903988 -0
    outer loop
      vertex 3.60618 6.7467 0
      vertex 2.92753 7.06768 15
      vertex 3.60618 6.7467 15
    endloop
  endfacet
  facet normal 0.427558 0.903988 0
    outer loop
      vertex 2.92753 7.06768 15
      vertex 3.60618 6.7467 0
      vertex 2.92753 7.06768 0
    endloop
  endfacet
  facet normal 0.595695 0.803211 -0
    outer loop
      vertex 4.85311 5.91353 0
      vertex 4.25011 6.36074 15
      vertex 4.85311 5.91353 15
    endloop
  endfacet
  facet normal 0.595695 0.803211 0
    outer loop
      vertex 4.25011 6.36074 15
      vertex 4.85311 5.91353 0
      vertex 4.25011 6.36074 0
    endloop
  endfacet
  facet normal -0.97003 0.242987 0
    outer loop
      vertex -7.50301 1.49244 0
      vertex -7.32059 2.22068 15
      vertex -7.32059 2.22068 0
    endloop
  endfacet
  facet normal -0.97003 0.242987 0
    outer loop
      vertex -7.32059 2.22068 15
      vertex -7.50301 1.49244 0
      vertex -7.50301 1.49244 15
    endloop
  endfacet
  facet normal -0.803211 0.595695 0
    outer loop
      vertex -6.36074 4.25011 0
      vertex -5.91353 4.85311 15
      vertex -5.91353 4.85311 0
    endloop
  endfacet
  facet normal -0.803211 0.595695 0
    outer loop
      vertex -5.91353 4.85311 15
      vertex -6.36074 4.25011 0
      vertex -6.36074 4.25011 15
    endloop
  endfacet
  facet normal -0.740954 0.671556 0
    outer loop
      vertex -5.91353 4.85311 0
      vertex -5.40937 5.40937 15
      vertex -5.40937 5.40937 0
    endloop
  endfacet
  facet normal -0.740954 0.671556 0
    outer loop
      vertex -5.40937 5.40937 15
      vertex -5.91353 4.85311 0
      vertex -5.91353 4.85311 15
    endloop
  endfacet
  facet normal -0.857727 0.514106 0
    outer loop
      vertex -6.7467 3.60618 0
      vertex -6.36074 4.25011 15
      vertex -6.36074 4.25011 0
    endloop
  endfacet
  facet normal -0.857727 0.514106 0
    outer loop
      vertex -6.36074 4.25011 15
      vertex -6.7467 3.60618 0
      vertex -6.7467 3.60618 15
    endloop
  endfacet
  facet normal -0.941546 0.336884 0
    outer loop
      vertex -7.32059 2.22068 0
      vertex -7.06768 2.92753 15
      vertex -7.06768 2.92753 0
    endloop
  endfacet
  facet normal -0.941546 0.336884 0
    outer loop
      vertex -7.06768 2.92753 15
      vertex -7.32059 2.22068 0
      vertex -7.32059 2.22068 15
    endloop
  endfacet
  facet normal -0.989178 0.146723 0
    outer loop
      vertex -7.61316 0.74983 0
      vertex -7.50301 1.49244 15
      vertex -7.50301 1.49244 0
    endloop
  endfacet
  facet normal -0.989178 0.146723 0
    outer loop
      vertex -7.50301 1.49244 15
      vertex -7.61316 0.74983 0
      vertex -7.61316 0.74983 15
    endloop
  endfacet
  facet normal 0 0 1
    outer loop
      vertex 7.06768 2.92753 15
      vertex 7.35 2.10328 15
      vertex 7.32059 2.22068 15
    endloop
  endfacet
  facet normal 0 0 1
    outer loop
      vertex 7.35 2.10328 15
      vertex 7.06768 2.92753 15
      vertex 7.35 -2.10328 15
    endloop
  endfacet
  facet normal 0 0 1
    outer loop
      vertex 7.06768 -2.92753 15
      vertex 7.35 -2.10328 15
      vertex 7.06768 2.92753 15
    endloop
  endfacet
  facet normal 0 0 1
    outer loop
      vertex 7.35 -2.10328 15
      vertex 7.06768 -2.92753 15
      vertex 7.32059 -2.22068 15
    endloop
  endfacet
  facet normal 0 0 1
    outer loop
      vertex 6.7467 3.60618 15
      vertex 7.06768 -2.92753 15
      vertex 7.06768 2.92753 15
    endloop
  endfacet
  facet normal 0 0 1
    outer loop
      vertex 6.7467 3.60618 15
      vertex 6.7467 -3.60618 15
      vertex 7.06768 -2.92753 15
    endloop
  endfacet
  facet normal 0 0 1
    outer loop
      vertex 6.36074 4.25011 15
      vertex 6.7467 -3.60618 15
      vertex 6.7467 3.60618 15
    endloop
  endfacet
  facet normal 0 0 1
    outer loop
      vertex 6.36074 4.25011 15
      vertex 6.36074 -4.25011 15
      vertex 6.7467 -3.60618 15
    endloop
  endfacet
  facet normal 0 0 1
    outer loop
      vertex 5.91353 4.85311 15
      vertex 6.36074 -4.25011 15
      vertex 6.36074 4.25011 15
    endloop
  endfacet
  facet normal 0 0 1
    outer loop
      vertex 5.91353 4.85311 15
      vertex 5.91353 -4.85311 15
      vertex 6.36074 -4.25011 15
    endloop
  endfacet
  facet normal 0 0 1
    outer loop
      vertex 5.40937 5.40937 15
      vertex 5.91353 -4.85311 15
      vertex 5.91353 4.85311 15
    endloop
  endfacet
  facet normal 0 0 1
    outer loop
      vertex 5.40937 5.40937 15
      vertex 5.40937 -5.40937 15
      vertex 5.91353 -4.85311 15
    endloop
  endfacet
  facet normal 0 0 1
    outer loop
      vertex 4.85311 5.91353 15
      vertex 5.40937 -5.40937 15
      vertex 5.40937 5.40937 15
    endloop
  endfacet
  facet normal 0 0 1
    outer loop
      vertex 4.85311 5.91353 15
      vertex 4.85311 -5.91353 15
      vertex 5.40937 -5.40937 15
    endloop
  endfacet
  facet normal 0 0 1
    outer loop
      vertex 4.25011 6.36074 15
      vertex 4.85311 -5.91353 15
      vertex 4.85311 5.91353 15
    endloop
  endfacet
  facet normal 0 0 1
    outer loop
      vertex 4.25011 6.36074 15
      vertex 4.25011 -6.36074 15
      vertex 4.85311 -5.91353 15
    endloop
  endfacet
  facet normal 0 0 1
    outer loop
      vertex 3.60618 6.7467 15
      vertex 4.25011 -6.36074 15
      vertex 4.25011 6.36074 15
    endloop
  endfacet
  facet normal 0 0 1
    outer loop
      vertex 3.60618 6.7467 15
      vertex 3.60618 -6.7467 15
      vertex 4.25011 -6.36074 15
    endloop
  endfacet
  facet normal 0 0 1
    outer loop
      vertex 2.92753 7.06768 15
      vertex 3.60618 -6.7467 15
      vertex 3.60618 6.7467 15
    endloop
  endfacet
  facet normal 0 0 1
    outer loop
      vertex 2.92753 7.06768 15
      vertex 2.92753 -7.06768 15
      vertex 3.60618 -6.7467 15
    endloop
  endfacet
  facet normal 0 0 1
    outer loop
      vertex 2.22068 7.32059 15
      vertex 2.92753 -7.06768 15
      vertex 2.92753 7.06768 15
    endloop
  endfacet
  facet normal 0 0 1
    outer loop
      vertex 2.22068 7.32059 15
      vertex 2.22068 -7.32059 15
      vertex 2.92753 -7.06768 15
    endloop
  endfacet
  facet normal 0 0 1
    outer loop
      vertex 1.49244 7.50301 15
      vertex 2.22068 -7.32059 15
      vertex 2.22068 7.32059 15
    endloop
  endfacet
  facet normal 0 0 1
    outer loop
      vertex 1.49244 7.50301 15
      vertex 1.49244 -7.50301 15
      vertex 2.22068 -7.32059 15
    endloop
  endfacet
  facet normal 0 0 1
    outer loop
      vertex 0.74983 7.61316 15
      vertex 1.49244 -7.50301 15
      vertex 1.49244 7.50301 15
    endloop
  endfacet
  facet normal 0 0 1
    outer loop
      vertex 0.74983 7.61316 15
      vertex 0.74983 -7.61316 15
      vertex 1.49244 -7.50301 15
    endloop
  endfacet
  facet normal 0 0 1
    outer loop
      vertex 0 7.65 15
      vertex 0.74983 -7.61316 15
      vertex 0.74983 7.61316 15
    endloop
  endfacet
  facet normal 0 0 1
    outer loop
      vertex 0 7.65 15
      vertex 0 -7.65 15
      vertex 0.74983 -7.61316 15
    endloop
  endfacet
  facet normal -0 0 1
    outer loop
      vertex -0.74983 7.61316 15
      vertex 0 -7.65 15
      vertex 0 7.65 15
    endloop
  endfacet
  facet normal 0 0 1
    outer loop
      vertex -0.74983 7.61316 15
      vertex -0.74983 -7.61316 15
      vertex 0 -7.65 15
    endloop
  endfacet
  facet normal -0 0 1
    outer loop
      vertex -1.49244 7.50301 15
      vertex -0.74983 -7.61316 15
      vertex -0.74983 7.61316 15
    endloop
  endfacet
  facet normal 0 0 1
    outer loop
      vertex -1.49244 7.50301 15
      vertex -1.49244 -7.50301 15
      vertex -0.74983 -7.61316 15
    endloop
  endfacet
  facet normal -0 0 1
    outer loop
      vertex -2.22068 7.32059 15
      vertex -1.49244 -7.50301 15
      vertex -1.49244 7.50301 15
    endloop
  endfacet
  facet normal 0 0 1
    outer loop
      vertex -2.22068 7.32059 15
      vertex -2.22068 -7.32059 15
      vertex -1.49244 -7.50301 15
    endloop
  endfacet
  facet normal -0 0 1
    outer loop
      vertex -2.92753 7.06768 15
      vertex -2.22068 -7.32059 15
      vertex -2.22068 7.32059 15
    endloop
  endfacet
  facet normal 0 0 1
    outer loop
      vertex -2.92753 7.06768 15
      vertex -2.92753 -7.06768 15
      vertex -2.22068 -7.32059 15
    endloop
  endfacet
  facet normal -0 0 1
    outer loop
      vertex -3.60618 6.7467 15
      vertex -2.92753 -7.06768 15
      vertex -2.92753 7.06768 15
    endloop
  endfacet
  facet normal 0 0 1
    outer loop
      vertex -3.60618 6.7467 15
      vertex -3.60618 -6.7467 15
      vertex -2.92753 -7.06768 15
    endloop
  endfacet
  facet normal -0 0 1
    outer loop
      vertex -4.25011 6.36074 15
      vertex -3.60618 -6.7467 15
      vertex -3.60618 6.7467 15
    endloop
  endfacet
  facet normal 0 0 1
    outer loop
      vertex -4.25011 6.36074 15
      vertex -4.25011 -6.36074 15
      vertex -3.60618 -6.7467 15
    endloop
  endfacet
  facet normal -0 0 1
    outer loop
      vertex -4.85311 5.91353 15
      vertex -4.25011 -6.36074 15
      vertex -4.25011 6.36074 15
    endloop
  endfacet
  facet normal 0 0 1
    outer loop
      vertex -4.85311 5.91353 15
      vertex -4.85311 -5.91353 15
      vertex -4.25011 -6.36074 15
    endloop
  endfacet
  facet normal -0 0 1
    outer loop
      vertex -5.40937 5.40937 15
      vertex -4.85311 -5.91353 15
      vertex -4.85311 5.91353 15
    endloop
  endfacet
  facet normal 0 0 1
    outer loop
      vertex -5.40937 5.40937 15
      vertex -5.40937 -5.40937 15
      vertex -4.85311 -5.91353 15
    endloop
  endfacet
  facet normal -0 0 1
    outer loop
      vertex -5.91353 4.85311 15
      vertex -5.40937 -5.40937 15
      vertex -5.40937 5.40937 15
    endloop
  endfacet
  facet normal 0 0 1
    outer loop
      vertex -5.91353 4.85311 15
      vertex -5.91353 -4.85311 15
      vertex -5.40937 -5.40937 15
    endloop
  endfacet
  facet normal -0 0 1
    outer loop
      vertex -6.36074 4.25011 15
      vertex -5.91353 -4.85311 15
      vertex -5.91353 4.85311 15
    endloop
  endfacet
  facet normal 0 0 1
    outer loop
      vertex -6.36074 4.25011 15
      vertex -6.36074 -4.25011 15
      vertex -5.91353 -4.85311 15
    endloop
  endfacet
  facet normal -0 0 1
    outer loop
      vertex -6.7467 3.60618 15
      vertex -6.36074 -4.25011 15
      vertex -6.36074 4.25011 15
    endloop
  endfacet
  facet normal 0 0 1
    outer loop
      vertex -6.7467 3.60618 15
      vertex -6.7467 -3.60618 15
      vertex -6.36074 -4.25011 15
    endloop
  endfacet
  facet normal -0 0 1
    outer loop
      vertex -7.06768 2.92753 15
      vertex -6.7467 -3.60618 15
      vertex -6.7467 3.60618 15
    endloop
  endfacet
  facet normal 0 0 1
    outer loop
      vertex -7.06768 2.92753 15
      vertex -7.06768 -2.92753 15
      vertex -6.7467 -3.60618 15
    endloop
  endfacet
  facet normal -0 0 1
    outer loop
      vertex -7.32059 2.22068 15
      vertex -7.06768 -2.92753 15
      vertex -7.06768 2.92753 15
    endloop
  endfacet
  facet normal 0 0 1
    outer loop
      vertex -7.32059 2.22068 15
      vertex -7.32059 -2.22068 15
      vertex -7.06768 -2.92753 15
    endloop
  endfacet
  facet normal -0 0 1
    outer loop
      vertex -7.50301 1.49244 15
      vertex -7.32059 -2.22068 15
      vertex -7.32059 2.22068 15
    endloop
  endfacet
  facet normal 0 0 1
    outer loop
      vertex -7.50301 1.49244 15
      vertex -7.50301 -1.49244 15
      vertex -7.32059 -2.22068 15
    endloop
  endfacet
  facet normal -0 0 1
    outer loop
      vertex -7.61316 0.74983 15
      vertex -7.50301 -1.49244 15
      vertex -7.50301 1.49244 15
    endloop
  endfacet
  facet normal 0 0 1
    outer loop
      vertex -7.61316 0.74983 15
      vertex -7.61316 -0.74983 15
      vertex -7.50301 -1.49244 15
    endloop
  endfacet
  facet normal 0 -0 1
    outer loop
      vertex -7.61316 -0.74983 15
      vertex -7.61316 0.74983 15
      vertex -7.65 0 15
    endloop
  endfacet
  facet normal 0 0 1
    outer loop
      vertex 7.35 2.10328 15
      vertex 10.5 2.85 15
      vertex 7.35 2.85 15
    endloop
  endfacet
  facet normal 0 0 1
    outer loop
      vertex 10.5 2.85 15
      vertex 7.35 2.10328 15
      vertex 10.5 -2.85 15
    endloop
  endfacet
  facet normal -0 0 1
    outer loop
      vertex 7.35 -2.10328 15
      vertex 10.5 -2.85 15
      vertex 7.35 2.10328 15
    endloop
  endfacet
  facet normal 0 0 1
    outer loop
      vertex 10.5 -2.85 15
      vertex 7.35 -2.10328 15
      vertex 7.35 -2.85 15
    endloop
  endfacet
  facet normal -0.514106 0.857727 0
    outer loop
      vertex -3.60618 6.7467 0
      vertex -4.25011 6.36074 15
      vertex -3.60618 6.7467 15
    endloop
  endfacet
  facet normal -0.514106 0.857727 0
    outer loop
      vertex -4.25011 6.36074 15
      vertex -3.60618 6.7467 0
      vertex -4.25011 6.36074 0
    endloop
  endfacet
  facet normal -0.595695 0.803211 0
    outer loop
      vertex -4.25011 6.36074 0
      vertex -4.85311 5.91353 15
      vertex -4.25011 6.36074 15
    endloop
  endfacet
  facet normal -0.595695 0.803211 0
    outer loop
      vertex -4.85311 5.91353 15
      vertex -4.25011 6.36074 0
      vertex -4.85311 5.91353 0
    endloop
  endfacet
  facet normal -0.336884 0.941546 0
    outer loop
      vertex -2.22068 7.32059 0
      vertex -2.92753 7.06768 15
      vertex -2.22068 7.32059 15
    endloop
  endfacet
  facet normal -0.336884 0.941546 0
    outer loop
      vertex -2.92753 7.06768 15
      vertex -2.22068 7.32059 0
      vertex -2.92753 7.06768 0
    endloop
  endfacet
  facet normal -0.146723 0.989178 0
    outer loop
      vertex -0.74983 7.61316 0
      vertex -1.49244 7.50301 15
      vertex -0.74983 7.61316 15
    endloop
  endfacet
  facet normal -0.146723 0.989178 0
    outer loop
      vertex -1.49244 7.50301 15
      vertex -0.74983 7.61316 0
      vertex -1.49244 7.50301 0
    endloop
  endfacet
  facet normal 0.740954 -0.671556 0
    outer loop
      vertex 5.40937 -5.40937 15
      vertex 5.91353 -4.85311 0
      vertex 5.91353 -4.85311 15
    endloop
  endfacet
  facet normal 0.740954 -0.671556 0
    outer loop
      vertex 5.91353 -4.85311 0
      vertex 5.40937 -5.40937 15
      vertex 5.40937 -5.40937 0
    endloop
  endfacet
  facet normal -0.671556 -0.740954 0
    outer loop
      vertex -5.40937 -5.40937 0
      vertex -4.85311 -5.91353 15
      vertex -5.40937 -5.40937 15
    endloop
  endfacet
  facet normal -0.671556 -0.740954 -0
    outer loop
      vertex -4.85311 -5.91353 15
      vertex -5.40937 -5.40937 0
      vertex -4.85311 -5.91353 0
    endloop
  endfacet
  facet normal -0.903988 -0.427558 0
    outer loop
      vertex -6.7467 -3.60618 0
      vertex -7.06768 -2.92753 15
      vertex -7.06768 -2.92753 0
    endloop
  endfacet
  facet normal -0.903988 -0.427558 0
    outer loop
      vertex -7.06768 -2.92753 15
      vertex -6.7467 -3.60618 0
      vertex -6.7467 -3.60618 15
    endloop
  endfacet
  facet normal -0.803211 -0.595695 0
    outer loop
      vertex -5.91353 -4.85311 0
      vertex -6.36074 -4.25011 15
      vertex -6.36074 -4.25011 0
    endloop
  endfacet
  facet normal -0.803211 -0.595695 0
    outer loop
      vertex -6.36074 -4.25011 15
      vertex -5.91353 -4.85311 0
      vertex -5.91353 -4.85311 15
    endloop
  endfacet
  facet normal 0 0 -1
    outer loop
      vertex 7.06768 -2.92753 0
      vertex 7.35 -2.10328 0
      vertex 7.32059 -2.22068 0
    endloop
  endfacet
  facet normal -0 0 -1
    outer loop
      vertex 7.35 -2.10328 0
      vertex 7.06768 -2.92753 0
      vertex 7.35 2.10328 0
    endloop
  endfacet
  facet normal 0 0 -1
    outer loop
      vertex 7.06768 2.92753 0
      vertex 7.35 2.10328 0
      vertex 7.06768 -2.92753 0
    endloop
  endfacet
  facet normal 0 0 -1
    outer loop
      vertex 7.35 2.10328 0
      vertex 7.06768 2.92753 0
      vertex 7.32059 2.22068 0
    endloop
  endfacet
  facet normal 0 0 -1
    outer loop
      vertex 6.7467 -3.60618 0
      vertex 7.06768 2.92753 0
      vertex 7.06768 -2.92753 0
    endloop
  endfacet
  facet normal 0 0 -1
    outer loop
      vertex 6.7467 -3.60618 0
      vertex 6.7467 3.60618 0
      vertex 7.06768 2.92753 0
    endloop
  endfacet
  facet normal 0 0 -1
    outer loop
      vertex 6.36074 -4.25011 0
      vertex 6.7467 3.60618 0
      vertex 6.7467 -3.60618 0
    endloop
  endfacet
  facet normal 0 0 -1
    outer loop
      vertex 6.36074 -4.25011 0
      vertex 6.36074 4.25011 0
      vertex 6.7467 3.60618 0
    endloop
  endfacet
  facet normal 0 0 -1
    outer loop
      vertex 5.91353 -4.85311 0
      vertex 6.36074 4.25011 0
      vertex 6.36074 -4.25011 0
    endloop
  endfacet
  facet normal 0 0 -1
    outer loop
      vertex 5.91353 -4.85311 0
      vertex 5.91353 4.85311 0
      vertex 6.36074 4.25011 0
    endloop
  endfacet
  facet normal 0 0 -1
    outer loop
      vertex 5.40937 -5.40937 0
      vertex 5.91353 4.85311 0
      vertex 5.91353 -4.85311 0
    endloop
  endfacet
  facet normal 0 0 -1
    outer loop
      vertex 5.40937 -5.40937 0
      vertex 5.40937 5.40937 0
      vertex 5.91353 4.85311 0
    endloop
  endfacet
  facet normal 0 0 -1
    outer loop
      vertex 4.85311 -5.91353 0
      vertex 5.40937 5.40937 0
      vertex 5.40937 -5.40937 0
    endloop
  endfacet
  facet normal 0 0 -1
    outer loop
      vertex 4.85311 -5.91353 0
      vertex 4.85311 5.91353 0
      vertex 5.40937 5.40937 0
    endloop
  endfacet
  facet normal 0 0 -1
    outer loop
      vertex 4.25011 -6.36074 0
      vertex 4.85311 5.91353 0
      vertex 4.85311 -5.91353 0
    endloop
  endfacet
  facet normal 0 0 -1
    outer loop
      vertex 4.25011 -6.36074 0
      vertex 4.25011 6.36074 0
      vertex 4.85311 5.91353 0
    endloop
  endfacet
  facet normal 0 0 -1
    outer loop
      vertex 3.60618 -6.7467 0
      vertex 4.25011 6.36074 0
      vertex 4.25011 -6.36074 0
    endloop
  endfacet
  facet normal 0 0 -1
    outer loop
      vertex 3.60618 -6.7467 0
      vertex 3.60618 6.7467 0
      vertex 4.25011 6.36074 0
    endloop
  endfacet
  facet normal 0 0 -1
    outer loop
      vertex 2.92753 -7.06768 0
      vertex 3.60618 6.7467 0
      vertex 3.60618 -6.7467 0
    endloop
  endfacet
  facet normal 0 0 -1
    outer loop
      vertex 2.92753 -7.06768 0
      vertex 2.92753 7.06768 0
      vertex 3.60618 6.7467 0
    endloop
  endfacet
  facet normal 0 0 -1
    outer loop
      vertex 2.22068 -7.32059 0
      vertex 2.92753 7.06768 0
      vertex 2.92753 -7.06768 0
    endloop
  endfacet
  facet normal 0 0 -1
    outer loop
      vertex 2.22068 -7.32059 0
      vertex 2.22068 7.32059 0
      vertex 2.92753 7.06768 0
    endloop
  endfacet
  facet normal 0 0 -1
    outer loop
      vertex 1.49244 -7.50301 0
      vertex 2.22068 7.32059 0
      vertex 2.22068 -7.32059 0
    endloop
  endfacet
  facet normal 0 0 -1
    outer loop
      vertex 1.49244 -7.50301 0
      vertex 1.49244 7.50301 0
      vertex 2.22068 7.32059 0
    endloop
  endfacet
  facet normal 0 0 -1
    outer loop
      vertex 0.74983 -7.61316 0
      vertex 1.49244 7.50301 0
      vertex 1.49244 -7.50301 0
    endloop
  endfacet
  facet normal 0 0 -1
    outer loop
      vertex 0.74983 -7.61316 0
      vertex 0.74983 7.61316 0
      vertex 1.49244 7.50301 0
    endloop
  endfacet
  facet normal 0 0 -1
    outer loop
      vertex 0 -7.65 0
      vertex 0.74983 7.61316 0
      vertex 0.74983 -7.61316 0
    endloop
  endfacet
  facet normal 0 0 -1
    outer loop
      vertex 0 -7.65 0
      vertex 0 7.65 0
      vertex 0.74983 7.61316 0
    endloop
  endfacet
  facet normal 0 0 -1
    outer loop
      vertex -0.74983 -7.61316 0
      vertex 0 7.65 0
      vertex 0 -7.65 0
    endloop
  endfacet
  facet normal 0 0 -1
    outer loop
      vertex -0.74983 -7.61316 0
      vertex -0.74983 7.61316 0
      vertex 0 7.65 0
    endloop
  endfacet
  facet normal 0 0 -1
    outer loop
      vertex -1.49244 -7.50301 0
      vertex -0.74983 7.61316 0
      vertex -0.74983 -7.61316 0
    endloop
  endfacet
  facet normal 0 0 -1
    outer loop
      vertex -1.49244 -7.50301 0
      vertex -1.49244 7.50301 0
      vertex -0.74983 7.61316 0
    endloop
  endfacet
  facet normal 0 0 -1
    outer loop
      vertex -2.22068 -7.32059 0
      vertex -1.49244 7.50301 0
      vertex -1.49244 -7.50301 0
    endloop
  endfacet
  facet normal 0 0 -1
    outer loop
      vertex -2.22068 -7.32059 0
      vertex -2.22068 7.32059 0
      vertex -1.49244 7.50301 0
    endloop
  endfacet
  facet normal 0 0 -1
    outer loop
      vertex -2.92753 -7.06768 0
      vertex -2.22068 7.32059 0
      vertex -2.22068 -7.32059 0
    endloop
  endfacet
  facet normal 0 0 -1
    outer loop
      vertex -2.92753 -7.06768 0
      vertex -2.92753 7.06768 0
      vertex -2.22068 7.32059 0
    endloop
  endfacet
  facet normal 0 0 -1
    outer loop
      vertex -3.60618 -6.7467 0
      vertex -2.92753 7.06768 0
      vertex -2.92753 -7.06768 0
    endloop
  endfacet
  facet normal 0 0 -1
    outer loop
      vertex -3.60618 -6.7467 0
      vertex -3.60618 6.7467 0
      vertex -2.92753 7.06768 0
    endloop
  endfacet
  facet normal 0 0 -1
    outer loop
      vertex -4.25011 -6.36074 0
      vertex -3.60618 6.7467 0
      vertex -3.60618 -6.7467 0
    endloop
  endfacet
  facet normal 0 0 -1
    outer loop
      vertex -4.25011 -6.36074 0
      vertex -4.25011 6.36074 0
      vertex -3.60618 6.7467 0
    endloop
  endfacet
  facet normal 0 0 -1
    outer loop
      vertex -4.85311 -5.91353 0
      vertex -4.25011 6.36074 0
      vertex -4.25011 -6.36074 0
    endloop
  endfacet
  facet normal 0 0 -1
    outer loop
      vertex -4.85311 -5.91353 0
      vertex -4.85311 5.91353 0
      vertex -4.25011 6.36074 0
    endloop
  endfacet
  facet normal 0 0 -1
    outer loop
      vertex -5.40937 -5.40937 0
      vertex -4.85311 5.91353 0
      vertex -4.85311 -5.91353 0
    endloop
  endfacet
  facet normal 0 0 -1
    outer loop
      vertex -5.40937 -5.40937 0
      vertex -5.40937 5.40937 0
      vertex -4.85311 5.91353 0
    endloop
  endfacet
  facet normal 0 0 -1
    outer loop
      vertex -5.91353 -4.85311 0
      vertex -5.40937 5.40937 0
      vertex -5.40937 -5.40937 0
    endloop
  endfacet
  facet normal 0 0 -1
    outer loop
      vertex -5.91353 -4.85311 0
      vertex -5.91353 4.85311 0
      vertex -5.40937 5.40937 0
    endloop
  endfacet
  facet normal 0 0 -1
    outer loop
      vertex -6.36074 -4.25011 0
      vertex -5.91353 4.85311 0
      vertex -5.91353 -4.85311 0
    endloop
  endfacet
  facet normal 0 0 -1
    outer loop
      vertex -6.36074 -4.25011 0
      vertex -6.36074 4.25011 0
      vertex -5.91353 4.85311 0
    endloop
  endfacet
  facet normal 0 0 -1
    outer loop
      vertex -6.7467 -3.60618 0
      vertex -6.36074 4.25011 0
      vertex -6.36074 -4.25011 0
    endloop
  endfacet
  facet normal 0 0 -1
    outer loop
      vertex -6.7467 -3.60618 0
      vertex -6.7467 3.60618 0
      vertex -6.36074 4.25011 0
    endloop
  endfacet
  facet normal 0 0 -1
    outer loop
      vertex -7.06768 -2.92753 0
      vertex -6.7467 3.60618 0
      vertex -6.7467 -3.60618 0
    endloop
  endfacet
  facet normal 0 0 -1
    outer loop
      vertex -7.06768 -2.92753 0
      vertex -7.06768 2.92753 0
      vertex -6.7467 3.60618 0
    endloop
  endfacet
  facet normal 0 0 -1
    outer loop
      vertex -7.32059 -2.22068 0
      vertex -7.06768 2.92753 0
      vertex -7.06768 -2.92753 0
    endloop
  endfacet
  facet normal 0 0 -1
    outer loop
      vertex -7.32059 -2.22068 0
      vertex -7.32059 2.22068 0
      vertex -7.06768 2.92753 0
    endloop
  endfacet
  facet normal 0 0 -1
    outer loop
      vertex -7.50301 -1.49244 0
      vertex -7.32059 2.22068 0
      vertex -7.32059 -2.22068 0
    endloop
  endfacet
  facet normal 0 0 -1
    outer loop
      vertex -7.50301 -1.49244 0
      vertex -7.50301 1.49244 0
      vertex -7.32059 2.22068 0
    endloop
  endfacet
  facet normal 0 0 -1
    outer loop
      vertex -7.61316 -0.74983 0
      vertex -7.50301 1.49244 0
      vertex -7.50301 -1.49244 0
    endloop
  endfacet
  facet normal 0 0 -1
    outer loop
      vertex -7.61316 -0.74983 0
      vertex -7.61316 0.74983 0
      vertex -7.50301 1.49244 0
    endloop
  endfacet
  facet normal 0 -0 -1
    outer loop
      vertex -7.61316 0.74983 0
      vertex -7.61316 -0.74983 0
      vertex -7.65 0 0
    endloop
  endfacet
  facet normal 0 0 -1
    outer loop
      vertex 7.35 -2.10328 0
      vertex 10.5 -2.85 0
      vertex 7.35 -2.85 0
    endloop
  endfacet
  facet normal 0 0 -1
    outer loop
      vertex 10.5 -2.85 0
      vertex 7.35 -2.10328 0
      vertex 10.5 2.85 0
    endloop
  endfacet
  facet normal 0 0 -1
    outer loop
      vertex 7.35 2.10328 0
      vertex 10.5 2.85 0
      vertex 7.35 -2.10328 0
    endloop
  endfacet
  facet normal -0 0 -1
    outer loop
      vertex 10.5 2.85 0
      vertex 7.35 2.10328 0
      vertex 7.35 2.85 0
    endloop
  endfacet
  facet normal 0.514106 -0.857727 0
    outer loop
      vertex 3.60618 -6.7467 0
      vertex 4.25011 -6.36074 15
      vertex 3.60618 -6.7467 15
    endloop
  endfacet
  facet normal 0.514106 -0.857727 0
    outer loop
      vertex 4.25011 -6.36074 15
      vertex 3.60618 -6.7467 0
      vertex 4.25011 -6.36074 0
    endloop
  endfacet
  facet normal 0.671556 -0.740954 0
    outer loop
      vertex 4.85311 -5.91353 0
      vertex 5.40937 -5.40937 15
      vertex 4.85311 -5.91353 15
    endloop
  endfacet
  facet normal 0.671556 -0.740954 0
    outer loop
      vertex 5.40937 -5.40937 15
      vertex 4.85311 -5.91353 0
      vertex 5.40937 -5.40937 0
    endloop
  endfacet
  facet normal 0.903988 -0.427558 0
    outer loop
      vertex 6.7467 -3.60618 15
      vertex 7.06768 -2.92753 0
      vertex 7.06768 -2.92753 15
    endloop
  endfacet
  facet normal 0.903988 -0.427558 0
    outer loop
      vertex 7.06768 -2.92753 0
      vertex 6.7467 -3.60618 15
      vertex 6.7467 -3.60618 0
    endloop
  endfacet
  facet normal 0.803211 -0.595695 0
    outer loop
      vertex 5.91353 -4.85311 15
      vertex 6.36074 -4.25011 0
      vertex 6.36074 -4.25011 15
    endloop
  endfacet
  facet normal 0.803211 -0.595695 0
    outer loop
      vertex 6.36074 -4.25011 0
      vertex 5.91353 -4.85311 15
      vertex 5.91353 -4.85311 0
    endloop
  endfacet
  facet normal -0.242987 -0.97003 0
    outer loop
      vertex -2.22068 -7.32059 0
      vertex -1.49244 -7.50301 15
      vertex -2.22068 -7.32059 15
    endloop
  endfacet
  facet normal -0.242987 -0.97003 -0
    outer loop
      vertex -1.49244 -7.50301 15
      vertex -2.22068 -7.32059 0
      vertex -1.49244 -7.50301 0
    endloop
  endfacet
  facet normal -0.740954 -0.671556 0
    outer loop
      vertex -5.40937 -5.40937 0
      vertex -5.91353 -4.85311 15
      vertex -5.91353 -4.85311 0
    endloop
  endfacet
  facet normal -0.740954 -0.671556 0
    outer loop
      vertex -5.91353 -4.85311 15
      vertex -5.40937 -5.40937 0
      vertex -5.40937 -5.40937 15
    endloop
  endfacet
  facet normal -0.97003 -0.242987 0
    outer loop
      vertex -7.32059 -2.22068 0
      vertex -7.50301 -1.49244 15
      vertex -7.50301 -1.49244 0
    endloop
  endfacet
  facet normal -0.97003 -0.242987 0
    outer loop
      vertex -7.50301 -1.49244 15
      vertex -7.32059 -2.22068 0
      vertex -7.32059 -2.22068 15
    endloop
  endfacet
  facet normal -0.941546 -0.336884 0
    outer loop
      vertex -7.06768 -2.92753 0
      vertex -7.32059 -2.22068 15
      vertex -7.32059 -2.22068 0
    endloop
  endfacet
  facet normal -0.941546 -0.336884 0
    outer loop
      vertex -7.32059 -2.22068 15
      vertex -7.06768 -2.92753 0
      vertex -7.06768 -2.92753 15
    endloop
  endfacet
  facet normal 0.427558 -0.903988 0
    outer loop
      vertex 2.92753 -7.06768 0
      vertex 3.60618 -6.7467 15
      vertex 2.92753 -7.06768 15
    endloop
  endfacet
  facet normal 0.427558 -0.903988 0
    outer loop
      vertex 3.60618 -6.7467 15
      vertex 2.92753 -7.06768 0
      vertex 3.60618 -6.7467 0
    endloop
  endfacet
  facet normal 0.336884 -0.941546 0
    outer loop
      vertex 2.22068 -7.32059 0
      vertex 2.92753 -7.06768 15
      vertex 2.22068 -7.32059 15
    endloop
  endfacet
  facet normal 0.336884 -0.941546 0
    outer loop
      vertex 2.92753 -7.06768 15
      vertex 2.22068 -7.32059 0
      vertex 2.92753 -7.06768 0
    endloop
  endfacet
  facet normal 0.242987 -0.97003 0
    outer loop
      vertex 1.49244 -7.50301 0
      vertex 2.22068 -7.32059 15
      vertex 1.49244 -7.50301 15
    endloop
  endfacet
  facet normal 0.242987 -0.97003 0
    outer loop
      vertex 2.22068 -7.32059 15
      vertex 1.49244 -7.50301 0
      vertex 2.22068 -7.32059 0
    endloop
  endfacet
  facet normal 0.941546 -0.336884 0
    outer loop
      vertex 7.06768 -2.92753 15
      vertex 7.32059 -2.22068 0
      vertex 7.32059 -2.22068 15
    endloop
  endfacet
  facet normal 0.941546 -0.336884 0
    outer loop
      vertex 7.32059 -2.22068 0
      vertex 7.06768 -2.92753 15
      vertex 7.06768 -2.92753 0
    endloop
  endfacet
  facet normal -0.0490719 -0.998795 0
    outer loop
      vertex -0.74983 -7.61316 0
      vertex 0 -7.65 15
      vertex -0.74983 -7.61316 15
    endloop
  endfacet
  facet normal -0.0490719 -0.998795 -0
    outer loop
      vertex 0 -7.65 15
      vertex -0.74983 -7.61316 0
      vertex 0 -7.65 0
    endloop
  endfacet
  facet normal -0.336884 -0.941546 0
    outer loop
      vertex -2.92753 -7.06768 0
      vertex -2.22068 -7.32059 15
      vertex -2.92753 -7.06768 15
    endloop
  endfacet
  facet normal -0.336884 -0.941546 -0
    outer loop
      vertex -2.22068 -7.32059 15
      vertex -2.92753 -7.06768 0
      vertex -2.22068 -7.32059 0
    endloop
  endfacet
  facet normal -0.857727 -0.514106 0
    outer loop
      vertex -6.36074 -4.25011 0
      vertex -6.7467 -3.60618 15
      vertex -6.7467 -3.60618 0
    endloop
  endfacet
  facet normal -0.857727 -0.514106 0
    outer loop
      vertex -6.7467 -3.60618 15
      vertex -6.36074 -4.25011 0
      vertex -6.36074 -4.25011 15
    endloop
  endfacet
  facet normal -0.989178 -0.146723 0
    outer loop
      vertex -7.50301 -1.49244 0
      vertex -7.61316 -0.74983 15
      vertex -7.61316 -0.74983 0
    endloop
  endfacet
  facet normal -0.989178 -0.146723 0
    outer loop
      vertex -7.61316 -0.74983 15
      vertex -7.50301 -1.49244 0
      vertex -7.50301 -1.49244 15
    endloop
  endfacet
  facet normal -0.998795 -0.0490719 0
    outer loop
      vertex -7.61316 -0.74983 0
      vertex -7.65 0 15
      vertex -7.65 0 0
    endloop
  endfacet
  facet normal -0.998795 -0.0490719 0
    outer loop
      vertex -7.65 0 15
      vertex -7.61316 -0.74983 0
      vertex -7.61316 -0.74983 15
    endloop
  endfacet
  facet normal 0.595695 -0.803211 0
    outer loop
      vertex 4.25011 -6.36074 0
      vertex 4.85311 -5.91353 15
      vertex 4.25011 -6.36074 15
    endloop
  endfacet
  facet normal 0.595695 -0.803211 0
    outer loop
      vertex 4.85311 -5.91353 15
      vertex 4.25011 -6.36074 0
      vertex 4.85311 -5.91353 0
    endloop
  endfacet
  facet normal -0.514106 -0.857727 0
    outer loop
      vertex -4.25011 -6.36074 0
      vertex -3.60618 -6.7467 15
      vertex -4.25011 -6.36074 15
    endloop
  endfacet
  facet normal -0.514106 -0.857727 -0
    outer loop
      vertex -3.60618 -6.7467 15
      vertex -4.25011 -6.36074 0
      vertex -3.60618 -6.7467 0
    endloop
  endfacet
  facet normal -0.146723 -0.989178 0
    outer loop
      vertex -1.49244 -7.50301 0
      vertex -0.74983 -7.61316 15
      vertex -1.49244 -7.50301 15
    endloop
  endfacet
  facet normal -0.146723 -0.989178 -0
    outer loop
      vertex -0.74983 -7.61316 15
      vertex -1.49244 -7.50301 0
      vertex -0.74983 -7.61316 0
    endloop
  endfacet
  facet normal -0.427558 -0.903988 0
    outer loop
      vertex -3.60618 -6.7467 0
      vertex -2.92753 -7.06768 15
      vertex -3.60618 -6.7467 15
    endloop
  endfacet
  facet normal -0.427558 -0.903988 -0
    outer loop
      vertex -2.92753 -7.06768 15
      vertex -3.60618 -6.7467 0
      vertex -2.92753 -7.06768 0
    endloop
  endfacet
  facet normal -0.595695 -0.803211 0
    outer loop
      vertex -4.85311 -5.91353 0
      vertex -4.25011 -6.36074 15
      vertex -4.85311 -5.91353 15
    endloop
  endfacet
  facet normal -0.595695 -0.803211 -0
    outer loop
      vertex -4.25011 -6.36074 15
      vertex -4.85311 -5.91353 0
      vertex -4.25011 -6.36074 0
    endloop
  endfacet
  facet normal -1 0 0
    outer loop
      vertex 7.35 -2.85 0
      vertex 7.35 -2.10328 15
      vertex 7.35 -2.10328 0
    endloop
  endfacet
  facet normal -1 -0 0
    outer loop
      vertex 7.35 -2.10328 15
      vertex 7.35 -2.85 0
      vertex 7.35 -2.85 15
    endloop
  endfacet
  facet normal -1 0 0
    outer loop
      vertex 7.35 2.10328 0
      vertex 7.35 2.85 15
      vertex 7.35 2.85 0
    endloop
  endfacet
  facet normal -1 -0 0
    outer loop
      vertex 7.35 2.85 15
      vertex 7.35 2.10328 0
      vertex 7.35 2.10328 15
    endloop
  endfacet
  facet normal 1 -0 0
    outer loop
      vertex 10.5 -2.85 15
      vertex 10.5 2.85 0
      vertex 10.5 2.85 15
    endloop
  endfacet
  facet normal 1 0 0
    outer loop
      vertex 10.5 2.85 0
      vertex 10.5 -2.85 15
      vertex 10.5 -2.85 0
    endloop
  endfacet
  facet normal 0 -1 0
    outer loop
      vertex 7.35 -2.85 0
      vertex 10.5 -2.85 15
      vertex 7.35 -2.85 15
    endloop
  endfacet
  facet normal 0 -1 -0
    outer loop
      vertex 10.5 -2.85 15
      vertex 7.35 -2.85 0
      vertex 10.5 -2.85 0
    endloop
  endfacet
  facet normal 0 1 -0
    outer loop
      vertex 10.5 2.85 0
      vertex 7.35 2.85 15
      vertex 10.5 2.85 15
    endloop
  endfacet
  facet normal 0 1 0
    outer loop
      vertex 7.35 2.85 15
      vertex 10.5 2.85 0
      vertex 7.35 2.85 0
    endloop
  endfacet
endsolid OpenSCAD_Model
